<?xml version="1.0" standalone="no"?><!DOCTYPE svg PUBLIC "-//W3C//DTD SVG 1.1//EN" "http://www.w3.org/Graphics/SVG/1.1/DTD/svg11.dtd"><svg height="1024" node-id="1" sillyvg="true" template-height="1024" template-width="1024" version="1.1" viewBox="0 0 1024 1024" width="1024" xmlns="http://www.w3.org/2000/svg" xmlns:xlink="http://www.w3.org/1999/xlink"><defs node-id="59"></defs><path d="M 0.00 0.00 L 1024.00 0.00 L 1024.00 1024.00 L 0.00 1024.00 Z" fill="#ffffff" fill-rule="nonzero" node-id="61" stroke="none" target-height="1024" target-width="1024" target-x="0" target-y="0"></path><path d="M 635.30 133.00 L 645.10 127.80 L 648.50 126.50 L 653.30 125.80 L 655.90 125.80 L 652.10 132.50 L 649.30 136.80 L 646.10 140.70 L 640.90 146.20 L 618.00 166.70 L 612.60 172.20 L 609.40 176.10 L 606.40 180.30 L 603.70 184.70 L 612.30 189.00 L 620.50 193.60 L 628.50 198.60 L 636.30 204.00 L 643.80 209.80 L 651.00 216.00 L 657.80 222.50 L 664.40 229.30 L 670.60 236.50 L 676.50 244.00 L 697.80 280.80 L 704.50 293.20 L 708.80 301.60 L 712.60 310.20 L 718.80 326.90 L 721.10 334.90 L 723.10 343.00 L 728.10 367.50 L 713.10 372.50 L 703.50 376.60 L 698.90 379.20 L 697.60 383.60 L 686.70 379.00 L 681.70 377.60 L 676.60 376.70 L 671.40 376.30 L 666.30 376.50 L 661.10 377.10 L 656.10 378.20 L 651.10 379.80 L 646.40 381.80 L 641.80 384.40 L 637.50 387.40 L 635.30 389.80 L 633.60 392.50 L 632.40 395.40 L 631.80 398.50 L 631.70 401.70 L 632.00 404.90 L 632.80 408.00 L 634.00 411.00 L 635.70 413.70 L 637.80 416.20 L 640.20 418.20 L 643.10 419.90 L 651.30 423.20 L 660.40 425.30 L 665.10 425.80 L 669.70 425.80 L 674.30 425.40 L 678.80 424.50 L 683.10 423.10 L 689.00 420.00 L 694.20 415.50 L 697.80 406.10 L 700.80 396.60 L 704.20 403.00 L 721.80 405.40 L 705.70 410.60 L 715.70 421.30 L 702.20 421.10 L 703.80 422.80 L 705.50 424.00 L 707.50 424.90 L 710.60 425.70 L 720.50 427.40 L 717.70 433.10 L 714.60 438.50 L 711.10 443.70 L 707.30 448.50 L 701.90 454.60 L 696.00 460.50 L 689.80 465.90 L 680.00 473.70 L 649.40 495.20 L 657.90 493.20 L 666.30 490.60 L 674.60 487.50 L 682.70 483.90 L 690.50 479.70 L 698.00 475.00 L 708.60 467.00 L 718.20 458.00 L 722.60 453.00 L 726.60 447.80 L 730.30 442.40 L 734.70 434.80 L 735.90 433.50 L 739.80 431.20 L 748.20 428.60 L 750.90 427.30 L 756.10 423.30 L 758.50 420.90 L 760.60 418.20 L 763.80 412.20 L 766.40 403.80 L 769.60 388.50 L 772.00 382.90 L 775.00 377.40 L 779.90 370.70 L 782.80 367.70 L 785.90 364.90 L 789.20 362.70 L 792.80 360.80 L 796.60 359.40 L 800.60 358.60 L 804.90 358.30 L 805.90 367.20 L 815.30 366.50 L 824.60 366.30 L 818.70 372.90 L 827.50 377.00 L 825.30 383.90 L 822.60 390.60 L 819.60 397.10 L 814.40 406.60 L 808.60 415.80 L 796.30 433.60 L 786.80 446.60 L 769.90 467.70 L 755.40 483.70 L 747.70 491.30 L 739.70 498.50 L 731.50 505.30 L 722.90 511.80 L 713.90 517.80 L 697.60 527.20 L 693.40 565.40 L 687.70 571.20 L 684.80 575.70 L 683.00 580.70 L 682.80 583.40 L 683.00 586.20 L 667.20 590.60 L 662.20 592.70 L 659.00 594.40 L 653.20 598.80 L 648.00 604.10 L 643.70 610.40 L 642.10 613.70 L 639.70 620.80 L 639.00 624.40 L 638.80 628.10 L 639.00 631.80 L 639.70 635.50 L 642.20 642.40 L 646.00 648.20 L 649.50 652.00 L 653.50 655.40 L 662.20 661.10 L 659.00 670.40 L 657.60 675.20 L 656.90 680.10 L 656.70 683.30 L 657.10 686.60 L 658.70 692.60 L 661.10 697.70 L 663.50 701.10 L 666.30 704.30 L 672.30 710.20 L 666.80 719.30 L 648.90 742.70 L 644.40 749.30 L 641.80 753.80 L 639.60 758.70 L 637.80 763.80 L 636.20 770.00 L 635.10 776.20 L 634.70 782.50 L 634.60 788.80 L 635.50 801.50 L 638.20 822.50 L 637.80 824.30 L 637.00 826.00 L 635.80 827.50 L 632.80 830.00 L 630.70 824.50 L 629.40 821.90 L 627.80 819.70 L 624.80 817.40 L 622.80 816.70 L 624.60 832.30 L 620.80 831.90 L 613.40 830.10 L 608.10 828.10 L 603.00 825.60 L 597.10 807.90 L 594.00 800.10 L 590.40 792.40 L 584.80 782.80 L 581.50 778.20 L 579.60 776.10 L 577.50 774.30 L 575.20 772.90 L 571.50 771.40 L 559.50 768.00 L 557.20 767.10 L 552.50 766.20 L 545.30 766.60 L 534.40 768.50 L 507.90 770.80 L 495.10 771.00 L 485.10 769.80 L 480.20 768.60 L 475.40 766.90 L 463.60 761.10 L 436.20 745.70 L 429.20 742.10 L 432.60 746.70 L 436.40 751.10 L 440.40 755.10 L 446.90 760.80 L 453.70 766.10 L 481.90 786.00 L 484.40 789.40 L 486.20 792.90 L 487.50 796.60 L 488.70 804.50 L 488.40 814.80 L 487.80 820.70 L 480.20 814.40 L 476.20 811.50 L 472.00 809.20 L 469.00 808.00 L 465.90 807.20 L 462.50 806.80 L 474.40 818.10 L 480.20 824.00 L 474.80 828.30 L 472.90 829.40 L 470.80 830.10 L 468.50 830.10 L 459.70 828.50 L 449.20 824.80 L 443.00 822.10 L 431.00 816.00 L 423.30 811.70 L 415.80 807.00 L 408.60 802.00 L 394.90 790.90 L 382.20 778.80 L 376.20 772.30 L 368.60 763.20 L 361.60 753.90 L 355.00 744.10 L 348.90 734.00 L 343.30 723.70 L 338.20 713.10 L 334.60 704.60 L 331.50 696.00 L 328.80 687.10 L 326.60 678.10 L 325.10 669.10 L 324.10 660.00 L 323.90 653.10 L 324.00 646.20 L 324.60 639.30 L 325.70 632.40 L 329.30 631.70 L 332.70 630.50 L 335.70 629.00 L 341.10 624.80 L 343.50 622.40 L 346.70 618.30 L 349.60 613.80 L 354.60 604.60 L 360.40 607.10 L 366.50 609.10 L 370.70 610.00 L 374.90 610.50 L 382.30 610.30 L 388.40 608.60 L 394.00 605.70 L 398.70 602.00 L 402.60 597.30 L 405.30 591.80 L 406.10 589.00 L 406.40 586.00 L 406.40 583.10 L 405.80 580.20 L 403.80 574.60 L 401.00 570.10 L 398.50 567.10 L 395.60 564.30 L 383.10 554.10 L 383.60 549.80 L 384.40 545.80 L 385.70 542.00 L 388.20 536.50 L 391.30 531.20 L 401.30 515.60 L 404.10 510.20 L 426.30 514.40 L 441.30 516.50 L 448.80 517.00 L 456.30 517.20 L 463.80 516.80 L 471.40 515.80 L 465.70 513.90 L 452.10 511.70 L 441.70 509.60 L 431.30 507.00 L 421.10 503.90 L 410.90 500.40 L 401.00 496.40 L 391.40 491.90 L 381.90 486.90 L 372.80 481.40 L 363.90 475.40 L 355.40 468.90 L 347.30 462.00 L 351.50 453.40 L 355.10 444.70 L 358.30 435.80 L 350.50 436.90 L 346.60 437.00 L 340.10 436.20 L 335.10 434.20 L 346.90 430.60 L 360.80 427.20 L 358.40 425.70 L 356.00 424.70 L 353.40 424.10 L 349.40 423.70 L 337.10 423.80 L 335.50 408.70 L 348.70 407.20 L 349.40 402.40 L 345.50 401.30 L 337.80 400.20 L 331.90 400.10 L 314.20 400.60 L 332.30 395.90 L 334.20 385.10 L 344.90 388.50 L 352.30 389.90 L 356.00 390.10 L 351.70 385.40 L 349.30 383.50 L 345.30 381.10 L 336.50 377.60 L 323.00 373.40 L 323.00 365.60 L 324.10 350.00 L 330.80 303.70 L 334.20 295.00 L 337.90 286.40 L 342.10 278.00 L 346.60 269.70 L 356.50 253.80 L 370.80 234.10 L 379.60 224.70 L 395.10 209.70 L 408.30 198.70 L 415.20 193.60 L 422.40 188.90 L 429.90 184.50 L 425.00 178.20 L 419.80 172.20 L 414.10 166.50 L 408.20 161.20 L 401.90 156.40 L 386.80 146.10 L 382.90 142.20 L 380.80 138.10 L 381.90 127.90 L 390.60 131.90 L 399.00 136.30 L 407.20 141.20 L 415.10 146.40 L 422.80 152.10 L 430.20 158.10 L 437.30 164.30 L 450.40 176.60 L 458.40 180.70 L 461.20 189.20 L 464.80 197.40 L 468.20 202.30 L 470.30 204.50 L 473.40 207.50 L 476.90 209.90 L 480.60 212.00 L 492.60 217.00 L 494.60 227.00 L 496.00 232.00 L 497.80 236.70 L 499.40 239.70 L 501.30 242.50 L 506.50 247.50 L 509.60 249.50 L 513.00 251.00 L 516.60 251.90 L 520.20 252.40 L 523.90 252.40 L 527.60 251.80 L 531.10 250.90 L 534.60 249.40 L 537.70 247.50 L 540.50 245.20 L 545.10 239.80 L 546.70 237.10 L 547.90 234.20 L 549.20 229.60 L 549.90 224.90 L 550.80 215.40 L 558.50 207.80 L 562.10 203.60 L 565.20 199.20 L 568.30 192.70 L 569.40 189.20 L 571.20 178.50 L 579.80 178.30 L 588.30 169.90 L 597.10 161.70 L 606.20 153.90 L 615.60 146.50 L 625.30 139.50 L 635.30 133.00 Z M 382.30 336.20 L 385.80 336.20 L 392.50 335.40 L 395.70 334.40 L 398.70 332.90 L 401.50 330.90 L 405.20 339.50 L 406.30 336.80 L 407.70 334.70 L 409.60 333.10 L 411.80 331.90 L 414.20 331.00 L 416.80 330.60 L 414.00 344.70 L 412.80 348.10 L 411.30 351.30 L 409.40 351.80 L 408.00 351.80 L 406.20 350.50 L 405.10 348.10 L 403.80 339.30 L 399.00 339.80 L 399.30 345.00 L 401.00 355.40 L 402.50 360.50 L 404.40 365.40 L 406.90 370.00 L 409.10 373.20 L 411.60 376.10 L 414.50 378.90 L 421.40 383.70 L 425.30 385.50 L 429.30 386.90 L 433.50 387.80 L 437.80 388.20 L 442.10 388.10 L 446.40 387.60 L 450.50 386.60 L 454.50 385.10 L 458.20 383.20 L 461.70 380.80 L 464.80 378.00 L 467.60 374.80 L 469.80 371.20 L 473.10 363.40 L 474.20 359.70 L 474.80 356.10 L 475.00 352.40 L 474.70 347.40 L 473.80 342.60 L 472.30 337.90 L 470.20 333.40 L 467.60 329.20 L 464.50 325.30 L 461.00 321.80 L 457.10 318.80 L 452.90 316.20 L 446.00 313.50 L 438.40 312.30 L 433.00 312.00 L 427.80 312.30 L 422.80 313.30 L 417.90 314.80 L 413.10 316.60 L 408.50 318.90 L 401.70 322.80 L 395.10 327.20 L 382.30 336.20 Z M 572.30 356.80 L 583.60 341.60 L 584.50 352.50 L 585.40 357.90 L 586.90 363.10 L 588.30 366.40 L 590.00 369.60 L 594.70 375.50 L 597.40 377.90 L 600.50 380.00 L 603.80 381.60 L 607.20 382.90 L 610.90 383.70 L 614.60 384.00 L 618.30 384.00 L 622.00 383.50 L 625.60 382.50 L 629.00 381.20 L 632.30 379.30 L 635.50 377.00 L 638.30 374.20 L 640.80 371.20 L 643.00 367.80 L 644.70 364.30 L 647.10 356.60 L 648.00 348.80 L 647.60 343.20 L 645.40 336.60 L 639.90 325.20 L 661.20 336.80 L 657.50 330.60 L 653.00 325.20 L 655.50 324.70 L 657.60 323.80 L 659.50 322.50 L 661.10 320.80 L 663.90 316.90 L 653.00 320.20 L 649.30 320.90 L 633.40 314.80 L 628.00 313.30 L 624.30 312.60 L 620.60 312.30 L 612.30 312.80 L 608.10 313.50 L 604.00 314.60 L 600.00 316.20 L 596.20 318.20 L 589.10 323.00 L 585.90 326.00 L 580.40 332.60 L 576.10 340.10 L 574.50 344.10 L 573.40 348.20 L 572.60 352.40 L 572.30 356.80 Z M 509.50 383.80 L 512.40 387.50 L 515.60 390.90 L 529.60 403.20 L 529.90 406.50 L 529.60 409.60 L 528.90 412.60 L 527.60 415.50 L 526.00 418.20 L 524.00 420.60 L 521.70 422.80 L 519.20 424.70 L 516.40 426.20 L 513.40 427.40 L 510.40 428.10 L 507.30 428.40 L 504.10 428.10 L 501.10 427.40 L 498.00 426.00 L 496.20 425.10 L 493.30 422.80 L 490.10 418.10 L 484.90 407.90 L 483.80 413.00 L 484.20 417.80 L 485.30 420.80 L 486.90 423.60 L 489.00 426.20 L 491.40 428.50 L 494.10 430.40 L 497.10 431.90 L 500.30 433.10 L 503.50 433.70 L 506.80 433.80 L 510.20 433.80 L 513.50 433.40 L 516.60 432.50 L 522.60 429.70 L 529.30 424.80 L 532.90 421.40 L 535.60 424.30 L 538.60 426.90 L 542.00 429.10 L 545.70 430.90 L 549.50 432.30 L 553.40 433.20 L 557.40 433.60 L 561.30 433.30 L 565.10 432.60 L 567.80 431.60 L 570.40 430.20 L 572.90 428.40 L 575.30 426.20 L 578.20 422.80 L 581.00 418.60 L 581.80 416.30 L 582.10 414.30 L 581.80 412.90 L 581.10 411.70 L 579.90 410.40 L 573.70 419.80 L 569.70 423.70 L 567.40 425.20 L 565.00 426.30 L 559.70 427.20 L 554.30 426.80 L 551.60 426.10 L 546.70 423.80 L 544.40 422.30 L 540.80 418.40 L 539.50 416.10 L 538.50 413.60 L 537.80 408.30 L 538.00 406.10 L 538.50 404.00 L 539.90 401.20 L 541.90 398.60 L 544.30 396.20 L 552.20 389.10 L 554.40 386.50 L 556.30 383.70 L 552.10 381.20 L 547.50 379.70 L 545.10 379.40 L 531.30 379.20 L 525.60 379.30 L 520.10 380.00 L 516.40 380.80 L 512.90 382.00 L 509.50 383.80 Z M 374.20 385.70 L 369.40 387.90 L 365.60 391.20 L 363.70 394.00 L 362.20 397.00 L 361.10 400.30 L 360.50 403.80 L 360.40 407.20 L 360.70 410.80 L 361.50 414.20 L 362.70 417.40 L 364.50 420.30 L 367.90 424.10 L 370.00 425.60 L 376.70 428.50 L 381.30 429.80 L 386.00 430.80 L 390.90 431.40 L 395.70 431.60 L 400.50 431.30 L 405.30 430.50 L 409.80 429.20 L 414.10 427.40 L 417.10 425.70 L 420.00 423.60 L 422.60 421.10 L 426.60 415.90 L 427.60 413.50 L 428.20 410.90 L 428.20 408.30 L 427.90 405.80 L 427.10 403.20 L 424.60 398.40 L 421.00 394.20 L 416.70 391.20 L 407.80 387.20 L 403.10 385.70 L 398.30 384.60 L 393.50 383.90 L 388.60 383.70 L 383.70 383.90 L 378.90 384.50 L 374.20 385.70 Z" fill="#fdfdfd" fill-rule="nonzero" node-id="63" stroke="none" target-height="706.5" target-width="513.3" target-x="314.2" target-y="125.8"></path><path d="M 596.70 901.00 L 598.10 900.50 L 600.10 900.90 L 601.10 901.90 L 601.60 903.40 L 601.60 905.00 L 601.10 906.60 L 599.50 908.10 L 598.30 908.50 L 596.90 908.70 L 595.80 908.60 L 594.90 908.20 L 593.90 907.20 L 593.30 905.80 L 593.30 904.30 L 593.80 902.80 L 595.40 901.40 L 596.70 901.00 Z" fill="#fdfdfd" fill-rule="nonzero" node-id="65" stroke="none" target-height="8.200012" target-width="8.299988" target-x="593.3" target-y="900.5"></path><path d="M 214.40 429.50 L 216.10 429.10 L 217.30 429.10 L 218.10 429.60 L 219.30 431.20 L 219.40 432.30 L 219.20 434.00 L 218.40 435.70 L 216.60 437.40 L 215.40 437.90 L 213.80 438.30 L 212.70 438.30 L 211.80 437.80 L 210.80 436.20 L 210.60 435.00 L 210.70 433.20 L 211.50 431.50 L 213.20 429.90 L 214.40 429.50 Z" fill="#f8f9fa" fill-rule="nonzero" node-id="67" stroke="none" target-height="9.199982" target-width="8.799988" target-x="210.6" target-y="429.1"></path><path d="M 421.10 897.80 L 423.60 897.80 L 427.90 898.80 L 429.70 899.90 L 431.20 901.50 L 432.40 903.80 L 430.80 905.10 L 427.90 906.40 L 426.50 906.60 L 423.90 905.90 L 422.00 904.20 L 421.40 902.80 L 420.90 899.80 L 421.10 897.80 Z" fill="#f8f9fa" fill-rule="nonzero" node-id="69" stroke="none" target-height="8.799988" target-width="11.5" target-x="420.9" target-y="897.8"></path><path d="M 249.00 515.20 L 264.80 509.50 L 280.90 504.30 L 281.50 513.40 L 282.60 550.20 L 283.30 559.30 L 284.40 568.40 L 286.00 577.50 L 290.90 597.30 L 294.00 607.10 L 297.60 616.70 L 300.30 622.90 L 303.40 629.00 L 308.00 636.80 L 308.80 638.80 L 309.70 644.20 L 310.30 661.80 L 312.00 676.80 L 313.50 684.30 L 316.00 694.10 L 319.00 703.70 L 322.60 713.20 L 312.80 709.00 L 310.50 701.20 L 308.80 697.60 L 282.10 659.00 L 269.40 673.30 L 262.20 659.80 L 256.30 645.70 L 253.10 636.10 L 250.40 626.20 L 248.20 616.30 L 246.50 606.20 L 245.20 596.10 L 244.30 586.00 L 244.10 574.50 L 245.00 528.40 L 244.90 516.80 L 249.00 515.20 Z" fill="#fcfdfd" fill-rule="nonzero" node-id="71" stroke="none" target-height="208.90002" target-width="78.5" target-x="244.1" target-y="504.3"></path><path d="M 738.40 423.70 L 741.00 410.60 L 742.10 407.50 L 743.70 404.60 L 753.50 405.90 L 750.40 410.90 L 746.90 415.60 L 741.50 421.30 L 738.40 423.70 Z" fill="#fdfcfd" fill-rule="nonzero" node-id="73" stroke="none" target-height="19.100006" target-width="15.099976" target-x="738.4" target-y="404.6"></path><path d="M 421.20 885.70 L 424.20 885.60 L 426.50 885.90 L 427.80 886.40 L 429.50 888.10 L 429.80 889.30 L 429.70 891.00 L 429.20 893.20 L 422.00 893.20 L 421.20 885.70 Z" fill="#fdfcfd" fill-rule="nonzero" node-id="75" stroke="none" target-height="7.6000366" target-width="8.599976" target-x="421.2" target-y="885.6"></path><path d="M 492.90 782.40 L 511.40 782.60 L 520.60 782.10 L 548.10 779.60 L 554.00 788.70 L 560.40 797.40 L 567.20 805.80 L 574.40 813.90 L 589.50 829.40 L 577.60 828.60 L 565.60 828.40 L 517.60 829.00 L 505.60 828.70 L 493.70 827.90 L 495.80 823.00 L 497.30 818.00 L 498.20 812.90 L 498.50 807.70 L 498.30 802.50 L 497.60 797.30 L 496.50 792.20 L 494.90 787.20 L 492.90 782.40 Z" fill="#fcfcfc" fill-rule="nonzero" node-id="77" stroke="none" target-height="49.80005" target-width="96.600006" target-x="492.9" target-y="779.6"></path><path d="M 224.00 250.00 L 225.00 248.10 L 227.80 239.50 L 230.00 236.80 L 232.80 235.60 L 236.20 245.70 L 238.50 250.50 L 241.30 255.00 L 245.90 260.40 L 250.90 264.40 L 253.30 265.80 L 271.30 272.80 L 275.90 275.60 L 278.00 277.50 L 259.10 283.60 L 254.60 285.50 L 250.20 287.90 L 247.80 289.90 L 243.90 294.30 L 241.50 298.10 L 239.50 302.20 L 233.00 319.10 L 229.10 314.50 L 227.70 311.90 L 222.50 299.20 L 220.40 295.20 L 218.80 292.70 L 216.80 290.50 L 211.30 286.20 L 207.80 284.40 L 193.20 278.90 L 188.90 276.20 L 187.00 274.50 L 203.30 268.70 L 211.80 264.20 L 217.70 259.60 L 220.20 256.80 L 222.30 253.70 L 224.00 250.00 Z M 199.30 276.10 L 203.40 276.70 L 207.10 277.70 L 210.60 279.10 L 213.90 280.90 L 219.80 285.60 L 224.60 291.40 L 227.30 295.80 L 229.40 300.40 L 231.10 305.30 L 238.80 292.40 L 241.60 288.20 L 243.90 285.90 L 246.40 283.90 L 249.10 282.20 L 253.50 280.20 L 258.10 278.70 L 267.40 276.20 L 262.10 274.80 L 257.00 273.00 L 252.10 270.70 L 247.50 267.90 L 243.30 264.70 L 239.40 261.10 L 236.80 258.00 L 232.40 251.20 L 230.60 247.30 L 229.40 251.00 L 225.90 257.40 L 223.80 260.40 L 220.50 263.90 L 216.80 267.10 L 212.70 269.90 L 208.40 272.30 L 204.00 274.40 L 199.30 276.10 Z" fill="#311922" fill-rule="nonzero" node-id="79" stroke="none" target-height="83.5" target-width="91" target-x="187" target-y="235.6"></path><path d="M 416.80 881.30 L 424.90 881.20 L 429.00 881.50 L 433.00 882.30 L 434.60 885.30 L 434.90 889.10 L 434.40 891.40 L 432.40 895.90 L 435.20 898.10 L 433.40 899.50 L 440.50 902.90 L 440.10 900.50 L 440.20 898.40 L 440.80 896.50 L 442.80 893.30 L 445.90 891.00 L 449.60 889.70 L 451.60 889.50 L 455.50 890.10 L 457.40 890.80 L 460.60 893.30 L 461.40 896.30 L 461.90 901.70 L 461.00 905.70 L 460.00 907.40 L 458.60 908.80 L 456.70 910.00 L 453.50 911.10 L 449.10 911.00 L 446.60 910.20 L 445.10 909.40 L 442.80 907.10 L 442.10 905.60 L 441.80 904.00 L 441.80 902.00 L 438.20 905.20 L 434.50 907.70 L 430.40 909.60 L 427.30 910.60 L 424.00 911.00 L 420.50 911.10 L 416.90 910.60 L 416.80 881.30 Z M 421.20 885.70 L 422.00 893.20 L 429.20 893.20 L 429.70 891.00 L 429.80 889.30 L 429.50 888.10 L 428.80 887.10 L 426.50 885.90 L 424.20 885.60 L 421.20 885.70 Z M 447.20 894.20 L 445.60 897.60 L 445.30 899.30 L 445.90 902.70 L 447.80 905.60 L 449.20 906.80 L 450.90 907.70 L 452.80 907.20 L 454.30 906.30 L 456.20 903.60 L 456.90 900.20 L 456.40 896.80 L 454.80 894.00 L 453.70 893.10 L 452.30 892.60 L 450.90 892.50 L 449.20 893.00 L 447.20 894.20 Z M 421.10 897.80 L 421.00 901.40 L 422.00 904.20 L 423.90 905.90 L 426.50 906.60 L 429.40 906.00 L 432.40 903.80 L 431.20 901.50 L 429.70 899.90 L 427.90 898.80 L 423.60 897.80 L 421.10 897.80 Z" fill="#311922" fill-rule="nonzero" node-id="81" stroke="none" target-height="29.899963" target-width="45.100006" target-x="416.8" target-y="881.2"></path><path d="M 555.40 894.50 L 556.00 891.90 L 557.00 889.60 L 558.30 887.60 L 561.80 884.50 L 564.00 883.30 L 568.60 881.90 L 571.10 881.50 L 574.90 881.50 L 578.50 882.10 L 580.30 887.00 L 577.20 886.30 L 573.80 886.10 L 570.40 886.40 L 567.30 887.30 L 563.70 889.40 L 562.40 890.80 L 561.40 892.50 L 560.80 894.60 L 560.90 899.90 L 561.50 902.00 L 562.60 903.70 L 564.10 905.10 L 565.80 906.10 L 567.90 906.90 L 571.20 907.50 L 574.70 907.60 L 581.30 906.40 L 579.40 908.60 L 577.30 910.20 L 575.00 911.30 L 572.50 911.90 L 570.00 912.00 L 567.40 911.70 L 562.50 909.90 L 560.30 908.50 L 558.40 906.70 L 556.80 904.80 L 555.70 902.50 L 555.00 900.10 L 554.90 897.40 L 555.40 894.50 Z" fill="#311922" fill-rule="nonzero" node-id="83" stroke="none" target-height="30.5" target-width="26.399963" target-x="554.9" target-y="881.5"></path><path d="M 523.00 907.90 L 521.60 906.20 L 520.70 904.40 L 520.20 902.50 L 520.40 898.50 L 522.10 894.60 L 524.80 891.60 L 526.50 890.50 L 528.40 889.80 L 532.00 889.20 L 533.20 889.40 L 535.60 891.20 L 538.70 896.10 L 529.90 892.90 L 526.90 896.80 L 525.90 899.10 L 525.60 901.40 L 525.70 902.90 L 526.20 904.40 L 527.20 905.90 L 528.40 906.60 L 530.70 907.10 L 537.80 905.30 L 537.10 910.40 L 532.00 911.30 L 529.50 911.30 L 527.00 910.90 L 525.60 910.30 L 523.00 907.90 Z" fill="#311922" fill-rule="nonzero" node-id="85" stroke="none" target-height="22.099976" target-width="18.5" target-x="520.2" target-y="889.2"></path><path d="M 588.20 894.30 L 589.00 892.70 L 591.30 890.40 L 593.60 889.40 L 596.10 888.90 L 598.70 889.00 L 601.20 889.60 L 602.70 890.40 L 605.10 892.50 L 606.30 895.40 L 606.40 904.70 L 606.00 907.00 L 605.50 908.40 L 604.50 909.60 L 603.20 910.70 L 598.80 911.80 L 594.00 911.70 L 591.80 911.00 L 589.90 909.90 L 588.30 907.60 L 587.80 906.00 L 587.90 904.20 L 588.30 902.80 L 589.10 901.60 L 590.70 900.20 L 595.20 898.40 L 601.90 896.70 L 600.70 895.00 L 599.40 894.00 L 598.10 893.40 L 595.70 893.20 L 588.20 894.30 Z M 596.70 901.00 L 595.40 901.40 L 593.80 902.80 L 593.30 904.30 L 593.30 905.80 L 593.90 907.20 L 594.90 908.20 L 596.90 908.70 L 598.30 908.50 L 599.50 908.10 L 601.10 906.60 L 601.60 905.00 L 601.60 903.40 L 601.10 901.90 L 600.10 900.90 L 598.10 900.50 L 596.70 901.00 Z" fill="#311922" fill-rule="nonzero" node-id="87" stroke="none" target-height="22.899963" target-width="18.600037" target-x="587.8" target-y="888.9"></path><path d="M 641.10 115.00 L 645.00 113.50 L 649.20 112.50 L 652.10 112.10 L 657.60 112.40 L 660.20 113.30 L 662.50 114.70 L 664.70 116.80 L 667.90 121.00 L 670.80 125.50 L 673.30 130.20 L 676.50 137.50 L 679.30 145.00 L 684.10 160.20 L 686.50 169.10 L 688.40 178.10 L 690.00 187.10 L 691.70 200.70 L 692.80 214.40 L 693.90 244.70 L 694.90 249.80 L 696.30 253.40 L 698.10 257.00 L 712.90 279.80 L 718.60 289.40 L 723.90 299.40 L 728.70 309.50 L 733.00 319.90 L 736.70 330.50 L 739.00 338.60 L 741.00 346.80 L 742.50 355.00 L 743.70 363.50 L 755.80 361.90 L 758.70 362.70 L 759.80 363.50 L 760.60 364.80 L 761.10 366.70 L 758.00 369.10 L 753.40 370.60 L 744.60 372.30 L 744.60 385.10 L 744.30 397.90 L 753.90 400.30 L 755.20 394.50 L 757.00 388.90 L 759.20 383.40 L 761.80 378.10 L 764.90 373.10 L 768.50 368.40 L 772.40 364.00 L 776.80 360.10 L 781.70 356.60 L 789.20 352.90 L 793.30 351.60 L 797.40 350.90 L 802.90 350.90 L 808.10 352.30 L 810.50 353.60 L 812.90 355.40 L 821.00 355.60 L 823.60 356.10 L 826.80 357.60 L 830.50 360.80 L 832.30 363.00 L 833.80 365.40 L 835.70 370.60 L 836.60 377.70 L 836.40 382.10 L 835.70 386.30 L 832.60 396.40 L 827.80 407.80 L 823.50 416.20 L 818.70 424.30 L 808.60 440.10 L 800.50 451.60 L 792.00 462.90 L 783.10 474.00 L 776.10 482.10 L 768.90 489.90 L 753.60 504.60 L 745.60 511.50 L 737.20 518.10 L 728.60 524.20 L 719.60 529.90 L 721.20 549.20 L 722.20 568.70 L 722.40 581.70 L 722.30 594.70 L 721.60 607.70 L 720.50 620.70 L 718.90 633.50 L 716.60 646.20 L 714.50 655.70 L 712.00 665.10 L 709.10 674.40 L 705.80 683.60 L 701.40 693.20 L 696.70 702.60 L 691.40 711.70 L 685.70 720.60 L 679.60 729.30 L 673.10 737.60 L 666.40 745.70 L 656.10 757.10 L 653.30 760.90 L 650.80 765.00 L 648.90 769.40 L 647.40 773.90 L 646.40 778.60 L 645.60 784.60 L 645.40 790.60 L 645.70 796.60 L 647.40 814.70 L 647.70 820.80 L 647.50 826.80 L 646.50 829.60 L 643.70 834.20 L 642.00 835.90 L 639.20 837.90 L 636.20 839.50 L 632.80 840.70 L 625.80 842.10 L 616.50 842.30 L 611.40 842.00 L 605.50 839.70 L 599.80 836.80 L 596.20 834.60 L 589.50 829.40 L 581.80 821.70 L 567.20 805.80 L 560.40 797.40 L 554.00 788.70 L 548.10 779.60 L 520.60 782.10 L 511.40 782.60 L 492.90 782.40 L 494.90 787.20 L 496.50 792.20 L 497.60 797.30 L 498.30 802.50 L 498.50 807.70 L 498.20 812.90 L 497.30 818.00 L 495.80 823.00 L 493.70 827.90 L 490.90 830.60 L 488.10 832.80 L 485.10 834.70 L 482.00 836.20 L 477.70 837.60 L 473.20 838.60 L 468.50 839.00 L 459.10 838.50 L 454.30 837.60 L 447.40 835.80 L 440.80 833.50 L 431.40 829.00 L 422.40 824.20 L 413.60 819.00 L 405.00 813.40 L 396.70 807.30 L 388.70 801.00 L 381.00 794.20 L 373.60 787.20 L 366.40 779.90 L 359.60 772.20 L 351.50 762.30 L 343.90 752.00 L 336.80 741.30 L 330.20 730.30 L 316.60 726.20 L 309.90 723.60 L 303.40 720.70 L 297.00 717.40 L 290.90 713.70 L 285.10 709.60 L 279.50 705.20 L 274.20 700.40 L 269.30 695.30 L 264.70 689.80 L 260.60 684.00 L 255.40 675.60 L 250.80 666.90 L 246.70 658.00 L 243.20 648.80 L 240.20 639.50 L 237.60 630.00 L 235.50 620.40 L 233.70 610.70 L 231.10 590.00 L 230.40 579.10 L 230.10 568.00 L 230.00 523.90 L 228.70 505.60 L 226.40 491.10 L 224.90 485.10 L 223.00 479.40 L 220.50 473.80 L 217.50 468.40 L 214.10 463.40 L 205.10 452.40 L 202.70 449.10 L 200.90 445.60 L 200.00 443.20 L 199.60 440.60 L 199.70 437.80 L 201.00 432.10 L 203.60 427.20 L 206.00 424.20 L 208.70 421.60 L 211.80 419.20 L 215.10 417.20 L 221.90 414.00 L 227.30 412.20 L 233.00 410.90 L 238.80 410.10 L 244.60 410.00 L 248.40 410.30 L 255.80 412.00 L 259.30 413.40 L 262.60 415.30 L 265.80 417.60 L 266.90 415.20 L 269.60 411.50 L 273.70 408.70 L 279.50 406.70 L 298.00 403.60 L 296.60 389.40 L 295.70 375.30 L 290.70 374.10 L 282.00 372.90 L 277.80 371.50 L 275.30 369.50 L 274.50 368.30 L 273.90 366.70 L 273.60 364.60 L 285.30 365.30 L 296.90 366.60 L 298.90 354.90 L 301.40 343.40 L 304.50 332.00 L 308.20 320.70 L 312.30 309.70 L 317.00 298.80 L 322.00 288.10 L 327.50 277.60 L 336.90 261.20 L 339.70 254.90 L 340.50 250.40 L 339.80 227.70 L 340.50 207.30 L 342.70 187.00 L 344.50 177.00 L 346.70 167.10 L 349.50 157.40 L 352.70 147.80 L 356.50 138.40 L 361.00 129.10 L 363.00 125.70 L 365.40 122.20 L 369.20 118.10 L 371.30 116.60 L 373.70 115.40 L 376.30 114.80 L 383.10 114.80 L 390.60 116.20 L 396.00 118.00 L 406.50 122.80 L 421.50 131.40 L 429.10 136.50 L 436.50 142.00 L 443.50 147.90 L 450.30 154.10 L 456.70 160.50 L 462.90 167.30 L 474.60 165.00 L 486.30 163.10 L 498.10 161.70 L 509.90 160.90 L 521.70 160.60 L 533.60 160.90 L 542.40 161.60 L 560.00 164.00 L 568.80 165.90 L 579.70 155.90 L 591.00 146.20 L 606.80 134.40 L 615.00 128.90 L 623.40 123.80 L 632.10 119.20 L 641.10 115.00 Z M 635.30 133.00 L 625.30 139.50 L 615.60 146.50 L 606.20 153.90 L 597.10 161.70 L 588.30 169.90 L 579.80 178.30 L 571.20 178.50 L 569.40 189.20 L 568.10 174.70 L 559.30 173.80 L 541.70 173.20 L 544.70 192.60 L 545.30 199.10 L 545.40 205.70 L 545.20 212.20 L 541.10 213.10 L 534.00 214.10 L 528.60 213.60 L 526.00 212.90 L 523.50 211.60 L 521.20 209.80 L 518.50 205.90 L 516.50 201.90 L 514.90 197.60 L 509.70 179.90 L 508.00 175.70 L 505.40 173.60 L 501.60 172.80 L 489.30 174.10 L 488.90 198.50 L 488.30 206.70 L 486.50 201.50 L 485.10 196.20 L 481.40 174.80 L 452.80 178.00 L 450.40 176.60 L 448.20 174.80 L 437.30 164.30 L 430.20 158.10 L 422.80 152.10 L 415.10 146.40 L 407.20 141.20 L 399.00 136.30 L 390.60 131.90 L 381.90 127.90 L 379.70 128.10 L 377.90 128.60 L 376.40 129.50 L 374.50 131.40 L 373.00 133.80 L 368.50 144.70 L 363.00 162.30 L 359.00 180.30 L 357.10 192.40 L 355.90 204.70 L 355.20 217.00 L 355.10 229.30 L 355.50 241.60 L 356.50 253.80 L 346.60 269.70 L 342.10 278.00 L 337.90 286.40 L 334.20 295.00 L 330.80 303.70 L 325.70 315.10 L 320.90 329.80 L 318.60 338.90 L 315.10 357.10 L 314.20 364.30 L 314.10 369.00 L 314.80 371.30 L 336.50 377.60 L 345.30 381.10 L 349.30 383.50 L 351.70 385.40 L 356.00 390.10 L 352.30 389.90 L 344.90 388.50 L 313.00 378.20 L 314.20 400.60 L 331.90 400.10 L 337.80 400.20 L 345.50 401.30 L 349.40 402.40 L 344.60 405.30 L 338.00 407.20 L 317.10 409.40 L 323.20 428.90 L 336.60 426.00 L 345.70 424.80 L 350.20 425.00 L 353.10 425.50 L 358.90 427.60 L 346.90 430.60 L 335.10 434.20 L 327.00 434.70 L 330.40 440.60 L 334.10 446.30 L 338.20 451.80 L 342.60 457.00 L 347.30 462.00 L 355.40 468.90 L 363.90 475.40 L 372.80 481.40 L 381.90 486.90 L 391.40 491.90 L 401.00 496.40 L 410.90 500.40 L 421.10 503.90 L 431.30 507.00 L 441.70 509.60 L 452.10 511.70 L 465.70 513.90 L 471.40 515.80 L 463.80 516.80 L 456.30 517.20 L 448.80 517.00 L 433.80 515.60 L 404.10 510.20 L 404.40 509.50 L 390.90 505.00 L 387.50 504.30 L 384.00 504.00 L 371.50 523.70 L 372.40 526.30 L 367.80 532.70 L 359.60 546.10 L 354.00 556.50 L 338.70 588.50 L 330.90 610.10 L 328.60 617.40 L 326.40 627.30 L 324.60 639.30 L 324.00 646.20 L 323.90 653.10 L 324.10 660.00 L 325.10 669.10 L 326.60 678.10 L 328.80 687.10 L 331.50 696.00 L 334.60 704.60 L 338.20 713.10 L 343.30 723.70 L 348.90 734.00 L 355.00 744.10 L 361.60 753.90 L 368.60 763.20 L 376.20 772.30 L 382.20 778.80 L 394.90 790.90 L 408.60 802.00 L 415.80 807.00 L 423.30 811.70 L 431.00 816.00 L 443.00 822.10 L 449.10 824.80 L 459.70 828.50 L 468.50 830.10 L 470.80 830.10 L 472.90 829.40 L 474.80 828.30 L 480.20 824.00 L 474.40 818.10 L 462.50 806.80 L 465.90 807.20 L 469.00 808.00 L 472.00 809.20 L 476.20 811.50 L 480.20 814.40 L 487.80 820.70 L 488.40 814.80 L 488.70 804.50 L 487.50 796.60 L 486.20 792.90 L 484.40 789.40 L 481.90 786.00 L 453.70 766.10 L 446.90 760.80 L 440.40 755.10 L 436.40 751.10 L 432.60 746.70 L 429.20 742.10 L 436.20 745.70 L 463.60 761.10 L 475.40 766.90 L 480.20 768.60 L 485.10 769.80 L 495.10 771.00 L 507.90 770.80 L 534.40 768.50 L 549.00 766.20 L 554.90 766.50 L 559.50 768.00 L 562.70 775.30 L 566.40 782.20 L 570.60 788.90 L 575.20 795.30 L 580.10 801.50 L 585.40 807.50 L 590.90 813.20 L 602.50 823.90 L 603.00 825.60 L 608.10 828.10 L 613.40 830.10 L 620.80 831.90 L 624.60 832.30 L 622.80 816.70 L 624.80 817.40 L 627.80 819.70 L 629.40 821.90 L 630.70 824.50 L 632.80 830.00 L 635.80 827.50 L 637.00 826.00 L 637.80 824.30 L 638.20 822.50 L 634.90 795.20 L 634.70 782.50 L 635.10 776.20 L 636.20 770.00 L 637.80 763.80 L 639.60 758.70 L 641.80 753.80 L 644.40 749.30 L 648.90 742.70 L 666.80 719.30 L 672.30 710.20 L 677.70 702.50 L 682.90 692.10 L 692.40 665.50 L 695.10 659.10 L 697.40 648.00 L 699.40 636.90 L 705.50 592.10 L 706.10 586.30 L 706.10 580.50 L 705.50 574.80 L 704.40 569.10 L 708.20 566.10 L 706.50 566.00 L 706.10 537.50 L 704.60 523.30 L 713.90 517.80 L 722.90 511.80 L 731.50 505.30 L 739.70 498.50 L 747.70 491.30 L 755.40 483.70 L 769.90 467.70 L 786.80 446.60 L 796.30 433.60 L 808.60 415.80 L 814.40 406.60 L 819.60 397.10 L 822.60 390.60 L 825.30 383.90 L 827.50 377.00 L 818.70 372.90 L 824.60 366.30 L 815.30 366.50 L 805.90 367.20 L 804.90 358.30 L 800.60 358.60 L 796.60 359.40 L 792.80 360.80 L 789.20 362.70 L 785.90 364.90 L 782.80 367.70 L 779.90 370.70 L 775.00 377.40 L 772.00 382.90 L 769.60 388.50 L 766.40 403.80 L 763.80 412.20 L 760.60 418.20 L 758.50 420.90 L 756.10 423.30 L 750.90 427.30 L 748.20 428.60 L 739.80 431.20 L 735.90 433.50 L 734.70 434.80 L 730.30 442.40 L 726.60 447.80 L 722.60 453.00 L 718.20 458.00 L 708.60 467.00 L 698.00 475.00 L 690.50 479.70 L 682.70 483.90 L 674.60 487.50 L 666.30 490.60 L 657.90 493.20 L 649.40 495.20 L 680.00 473.70 L 689.80 465.90 L 696.00 460.50 L 701.90 454.60 L 707.30 448.50 L 711.10 443.70 L 714.60 438.50 L 717.70 433.10 L 720.50 427.40 L 710.60 425.70 L 707.50 424.90 L 705.50 424.00 L 703.80 422.80 L 702.20 421.10 L 715.70 421.30 L 717.70 421.90 L 719.20 422.00 L 721.50 420.90 L 723.20 418.60 L 724.00 416.40 L 725.80 408.50 L 727.30 404.20 L 721.80 405.40 L 704.70 403.10 L 706.20 397.10 L 728.50 396.50 L 728.70 375.60 L 708.20 382.20 L 701.20 383.50 L 697.60 383.60 L 698.90 379.20 L 703.50 376.60 L 713.10 372.50 L 728.10 367.50 L 723.10 343.00 L 721.10 334.90 L 718.80 326.90 L 716.10 319.00 L 712.60 310.20 L 708.80 301.60 L 704.50 293.20 L 697.80 280.80 L 676.50 244.00 L 677.00 229.20 L 676.90 214.10 L 676.40 204.10 L 675.50 194.10 L 674.30 184.10 L 672.50 174.30 L 670.20 164.60 L 667.30 155.10 L 664.70 148.10 L 661.80 141.20 L 658.40 134.60 L 654.70 128.00 L 655.90 125.80 L 653.30 125.80 L 648.50 126.50 L 641.80 129.40 L 635.30 133.00 Z M 738.40 423.70 L 741.50 421.30 L 746.90 415.60 L 750.40 410.90 L 753.50 405.90 L 743.70 404.60 L 742.10 407.50 L 741.00 410.60 L 738.40 423.70 Z M 274.90 417.00 L 271.40 423.50 L 278.80 432.80 L 285.60 442.50 L 295.20 437.80 L 305.00 433.70 L 299.40 412.50 L 287.10 414.50 L 274.90 417.00 Z M 230.10 424.80 L 237.70 438.40 L 241.20 445.30 L 244.20 452.40 L 245.90 457.20 L 247.10 462.20 L 249.00 472.70 L 249.70 478.00 L 249.80 491.20 L 249.10 507.20 L 249.00 515.20 L 244.90 516.80 L 245.00 528.40 L 244.10 574.50 L 244.30 586.00 L 245.20 596.10 L 246.50 606.20 L 248.20 616.30 L 250.40 626.20 L 253.10 636.10 L 256.30 645.70 L 259.10 652.80 L 265.60 666.60 L 269.40 673.30 L 273.00 678.50 L 277.00 683.50 L 281.30 688.10 L 285.90 692.50 L 290.70 696.50 L 295.90 700.20 L 301.30 703.60 L 306.90 706.50 L 322.60 713.20 L 319.00 703.70 L 316.00 694.10 L 313.50 684.30 L 312.00 676.80 L 310.30 661.80 L 309.70 644.20 L 308.80 638.80 L 308.00 636.80 L 303.40 629.00 L 300.30 622.90 L 297.60 616.70 L 294.00 607.10 L 290.90 597.30 L 286.00 577.50 L 284.40 568.40 L 283.30 559.30 L 282.60 550.20 L 281.50 513.40 L 280.50 493.10 L 279.90 487.50 L 275.90 467.80 L 272.10 453.60 L 268.50 444.60 L 263.90 436.10 L 261.10 432.20 L 257.90 428.40 L 256.10 426.50 L 254.10 425.00 L 249.70 423.00 L 244.90 422.20 L 241.10 422.30 L 237.30 422.80 L 230.10 424.80 Z M 214.40 429.50 L 213.20 429.90 L 211.50 431.50 L 210.70 433.20 L 210.60 435.00 L 210.80 436.20 L 211.80 437.80 L 212.70 438.30 L 213.80 438.30 L 216.60 437.40 L 217.60 436.70 L 219.20 434.00 L 219.40 432.30 L 219.30 431.20 L 218.10 429.60 L 217.30 429.10 L 216.10 429.10 L 214.40 429.50 Z M 288.00 448.80 L 292.10 464.50 L 293.50 472.40 L 295.00 484.30 L 296.00 496.40 L 296.60 508.50 L 297.30 553.90 L 298.20 563.00 L 299.50 572.00 L 301.30 581.00 L 303.60 589.90 L 306.30 598.60 L 309.40 607.20 L 312.80 615.60 L 315.30 609.80 L 321.20 591.90 L 325.90 579.40 L 331.00 567.00 L 336.60 554.90 L 342.50 542.90 L 351.10 527.20 L 360.10 511.80 L 369.60 496.80 L 361.60 492.40 L 353.90 487.70 L 346.50 482.40 L 339.40 476.70 L 332.70 470.60 L 326.50 464.00 L 322.10 458.70 L 314.30 447.60 L 310.90 441.60 L 299.40 445.00 L 288.00 448.80 Z" fill="#371b26" fill-rule="nonzero" node-id="89" stroke="none" target-height="730.2" target-width="637" target-x="199.6" target-y="112.1"></path><path d="M 368.50 144.70 L 373.00 133.80 L 374.50 131.40 L 376.40 129.50 L 377.90 128.60 L 379.70 128.10 L 381.90 127.90 L 380.80 138.10 L 375.60 159.10 L 373.50 169.70 L 371.70 180.40 L 370.40 191.10 L 369.60 201.80 L 369.40 209.90 L 370.00 226.00 L 370.80 234.10 L 356.50 253.80 L 355.50 241.60 L 355.10 229.30 L 355.20 217.00 L 355.90 204.70 L 357.10 192.40 L 359.00 180.30 L 363.00 162.30 L 368.50 144.70 Z" fill="#e1b7c6" fill-rule="nonzero" node-id="91" stroke="none" target-height="125.9" target-width="26.799988" target-x="355.1" target-y="127.9"></path><path d="M 654.70 128.00 L 658.40 134.60 L 661.80 141.20 L 664.70 148.10 L 667.30 155.10 L 670.20 164.60 L 672.50 174.30 L 674.30 184.10 L 675.50 194.10 L 676.40 204.10 L 676.90 214.10 L 677.00 229.20 L 676.50 244.00 L 670.60 236.50 L 664.40 229.30 L 657.80 222.50 L 651.00 216.00 L 643.80 209.80 L 636.30 204.00 L 628.50 198.60 L 620.50 193.60 L 612.30 189.00 L 603.70 184.70 L 606.40 180.30 L 609.40 176.10 L 612.60 172.20 L 618.00 166.70 L 640.90 146.20 L 646.10 140.70 L 649.30 136.80 L 652.10 132.50 L 654.70 128.00 Z" fill="#facad8" fill-rule="nonzero" node-id="93" stroke="none" target-height="116" target-width="73.29999" target-x="603.7" target-y="128"></path><path d="M 370.80 234.10 L 370.00 226.00 L 369.40 209.90 L 369.60 201.80 L 370.40 191.10 L 371.70 180.40 L 373.50 169.70 L 375.60 159.10 L 380.80 138.10 L 382.90 142.20 L 386.80 146.10 L 401.90 156.40 L 408.20 161.20 L 414.10 166.50 L 419.80 172.20 L 425.00 178.20 L 429.90 184.50 L 422.40 188.90 L 415.20 193.60 L 401.60 204.10 L 388.80 215.60 L 379.60 224.70 L 370.80 234.10 Z" fill="#fdcada" fill-rule="nonzero" node-id="95" stroke="none" target-height="96" target-width="60.5" target-x="369.4" target-y="138.1"></path><path d="M 452.80 178.00 L 481.40 174.80 L 485.10 196.20 L 486.50 201.50 L 488.30 206.70 L 488.90 198.50 L 489.30 174.10 L 501.60 172.80 L 505.40 173.60 L 508.00 175.70 L 509.70 179.90 L 514.90 197.60 L 516.50 201.90 L 518.50 205.90 L 521.20 209.80 L 523.50 211.60 L 526.00 212.90 L 528.60 213.60 L 534.00 214.10 L 541.10 213.10 L 545.20 212.20 L 545.40 205.70 L 545.30 199.10 L 544.70 192.60 L 541.70 173.20 L 550.50 173.30 L 568.10 174.70 L 569.40 189.20 L 568.30 192.70 L 565.20 199.20 L 562.10 203.60 L 558.50 207.80 L 550.80 215.40 L 549.90 224.90 L 549.20 229.60 L 547.90 234.20 L 546.70 237.10 L 545.10 239.80 L 543.00 242.30 L 540.50 245.20 L 537.70 247.50 L 534.60 249.40 L 531.10 250.90 L 527.60 251.80 L 523.90 252.40 L 520.20 252.40 L 516.60 251.90 L 513.00 251.00 L 509.60 249.50 L 506.50 247.50 L 503.70 245.00 L 501.30 242.50 L 499.40 239.70 L 497.80 236.70 L 496.00 232.00 L 494.60 227.00 L 492.60 217.00 L 480.60 212.00 L 476.90 209.90 L 473.40 207.50 L 470.30 204.50 L 468.20 202.30 L 464.80 197.40 L 461.20 189.20 L 458.40 180.70 L 452.80 178.00 Z" fill="#4a2e3f" fill-rule="nonzero" node-id="97" stroke="none" target-height="79.59999" target-width="116.60004" target-x="452.8" target-y="172.8"></path><path d="M 789.60 242.80 L 798.90 259.00 L 801.10 262.10 L 803.60 264.50 L 809.40 268.00 L 818.80 272.20 L 821.80 274.00 L 824.50 276.10 L 809.60 281.50 L 805.10 284.10 L 803.10 285.80 L 801.00 288.00 L 797.70 292.90 L 790.40 309.30 L 786.40 298.40 L 784.80 295.00 L 782.80 291.70 L 780.30 288.70 L 777.50 286.00 L 774.30 283.90 L 770.90 282.10 L 756.60 276.10 L 753.20 274.20 L 772.30 266.60 L 778.10 263.10 L 780.80 260.90 L 784.20 255.10 L 789.60 242.80 Z M 767.30 273.80 L 776.40 278.70 L 782.00 282.70 L 786.60 287.60 L 788.50 290.50 L 790.00 293.70 L 793.00 289.40 L 796.30 285.50 L 800.00 282.00 L 803.00 279.70 L 806.20 277.70 L 809.70 276.00 L 813.40 274.70 L 808.60 272.70 L 804.00 270.30 L 798.50 266.20 L 793.90 261.30 L 792.00 258.40 L 790.50 255.20 L 788.60 258.60 L 786.40 261.80 L 783.80 264.60 L 781.00 267.20 L 777.90 269.40 L 774.60 271.20 L 771.10 272.70 L 767.30 273.80 Z" fill="#43231a" fill-rule="nonzero" node-id="99" stroke="none" target-height="66.499985" target-width="71.29999" target-x="753.2" target-y="242.8"></path><path d="M 199.30 276.10 L 204.00 274.40 L 208.40 272.30 L 212.70 269.90 L 216.80 267.10 L 220.50 263.90 L 223.80 260.40 L 225.90 257.40 L 229.40 251.00 L 230.60 247.30 L 232.40 251.20 L 236.80 258.00 L 239.40 261.10 L 243.30 264.70 L 247.50 267.90 L 252.10 270.70 L 257.00 273.00 L 262.10 274.80 L 267.40 276.20 L 258.10 278.70 L 253.50 280.20 L 249.10 282.20 L 246.40 283.90 L 243.90 285.90 L 241.60 288.20 L 238.80 292.40 L 231.10 305.30 L 229.40 300.40 L 227.30 295.80 L 224.60 291.40 L 219.80 285.60 L 213.90 280.90 L 210.60 279.10 L 207.10 277.70 L 203.40 276.70 L 199.30 276.10 Z" fill="#edb761" fill-rule="nonzero" node-id="101" stroke="none" target-height="57.999985" target-width="68.09999" target-x="199.3" target-y="247.3"></path><path d="M 767.30 273.80 L 771.10 272.70 L 774.60 271.20 L 777.90 269.40 L 781.00 267.20 L 783.80 264.60 L 786.40 261.80 L 788.60 258.60 L 790.50 255.20 L 792.00 258.40 L 793.90 261.30 L 798.50 266.20 L 804.00 270.30 L 808.60 272.70 L 813.40 274.70 L 809.70 276.00 L 806.20 277.70 L 803.00 279.70 L 800.00 282.00 L 796.30 285.50 L 793.00 289.40 L 790.00 293.70 L 788.50 290.50 L 786.60 287.60 L 782.00 282.70 L 776.40 278.70 L 767.30 273.80 Z" fill="#e0a751" fill-rule="nonzero" node-id="103" stroke="none" target-height="38.500015" target-width="46.100037" target-x="767.3" target-y="255.2"></path><path d="M 315.10 357.10 L 318.60 338.90 L 320.90 329.80 L 325.70 315.10 L 330.80 303.70 L 324.10 350.00 L 323.00 365.60 L 323.00 373.40 L 314.80 371.30 L 314.10 369.00 L 314.00 366.70 L 315.10 357.10 Z" fill="#cdc8d1" fill-rule="nonzero" node-id="105" stroke="none" target-height="69.69998" target-width="16.799988" target-x="314" target-y="303.7"></path><path d="M 382.30 336.20 L 395.10 327.20 L 401.70 322.80 L 408.50 318.90 L 413.10 316.60 L 417.90 314.80 L 422.80 313.30 L 427.80 312.30 L 433.00 312.00 L 438.40 312.30 L 446.00 313.50 L 452.90 316.20 L 457.10 318.80 L 461.00 321.80 L 464.50 325.30 L 467.60 329.20 L 470.20 333.40 L 472.30 337.90 L 473.80 342.60 L 474.70 347.40 L 475.00 352.40 L 474.80 356.10 L 474.20 359.70 L 473.10 363.40 L 469.80 371.20 L 467.60 374.80 L 464.80 378.00 L 461.70 380.80 L 458.20 383.20 L 454.50 385.10 L 450.50 386.60 L 446.40 387.60 L 442.10 388.10 L 437.80 388.20 L 433.50 387.80 L 429.30 386.90 L 425.30 385.50 L 421.40 383.70 L 414.50 378.90 L 411.60 376.10 L 409.10 373.20 L 406.90 370.00 L 404.40 365.40 L 402.50 360.50 L 401.00 355.40 L 399.90 350.20 L 399.00 339.80 L 403.80 339.30 L 405.10 348.10 L 406.20 350.50 L 408.00 351.80 L 409.40 351.80 L 411.30 351.30 L 412.80 348.10 L 414.00 344.70 L 416.80 330.60 L 414.20 331.00 L 411.80 331.90 L 409.60 333.10 L 407.70 334.70 L 406.30 336.80 L 405.20 339.50 L 401.50 330.90 L 398.70 332.90 L 395.70 334.40 L 392.50 335.40 L 385.80 336.20 L 382.30 336.20 Z" fill="#3b1e2d" fill-rule="nonzero" node-id="107" stroke="none" target-height="76.20001" target-width="92.70001" target-x="382.3" target-y="312"></path><path d="M 572.30 356.80 L 572.60 352.40 L 573.40 348.20 L 574.50 344.10 L 576.10 340.10 L 580.40 332.60 L 585.90 326.00 L 589.10 323.00 L 596.10 318.20 L 600.00 316.20 L 604.00 314.60 L 608.10 313.50 L 612.30 312.80 L 620.60 312.30 L 624.30 312.60 L 628.00 313.30 L 633.40 314.80 L 649.30 320.90 L 653.00 320.20 L 663.90 316.90 L 661.10 320.80 L 659.50 322.50 L 657.60 323.80 L 655.50 324.70 L 653.00 325.20 L 657.50 330.60 L 661.20 336.80 L 639.90 325.20 L 645.40 336.60 L 646.90 340.50 L 648.00 345.90 L 648.00 348.80 L 647.10 356.60 L 646.10 360.50 L 644.70 364.30 L 643.00 367.80 L 640.80 371.20 L 638.30 374.20 L 635.50 377.00 L 632.30 379.30 L 629.00 381.20 L 625.60 382.50 L 622.00 383.50 L 618.30 384.00 L 614.60 384.00 L 610.90 383.70 L 607.20 382.90 L 603.80 381.60 L 600.50 380.00 L 597.40 377.90 L 594.70 375.50 L 590.00 369.60 L 588.30 366.40 L 586.90 363.10 L 585.40 357.90 L 584.50 352.50 L 583.60 341.60 L 572.30 356.80 Z M 593.00 351.00 L 594.80 350.40 L 596.00 349.50 L 596.90 348.40 L 597.60 346.40 L 597.90 343.90 L 597.60 333.90 L 594.30 336.80 L 593.10 338.60 L 591.60 342.50 L 591.50 346.80 L 593.00 351.00 Z" fill="#3d1f2a" fill-rule="nonzero" node-id="109" stroke="none" target-height="71.70001" target-width="91.60004" target-x="572.3" target-y="312.3"></path><path d="M 593.00 351.00 L 591.50 346.80 L 591.60 342.50 L 593.10 338.60 L 594.30 336.80 L 597.60 333.90 L 597.90 343.90 L 597.60 346.40 L 596.90 348.40 L 596.00 349.50 L 594.80 350.40 L 593.00 351.00 Z" fill="#fcfcfd" fill-rule="nonzero" node-id="111" stroke="none" target-height="17.100006" target-width="6.4000244" target-x="591.5" target-y="333.9"></path><path d="M 288.00 448.80 L 299.40 445.00 L 310.90 441.60 L 314.30 447.60 L 322.10 458.70 L 326.50 464.00 L 332.70 470.60 L 339.40 476.70 L 346.50 482.40 L 353.90 487.70 L 361.60 492.40 L 369.60 496.80 L 360.10 511.80 L 351.10 527.20 L 342.50 542.90 L 336.60 554.90 L 331.00 567.00 L 325.90 579.40 L 321.20 591.90 L 315.30 609.80 L 312.80 615.60 L 309.40 607.20 L 306.30 598.60 L 303.60 589.90 L 301.30 581.00 L 299.50 572.00 L 298.20 563.00 L 297.30 553.90 L 296.60 508.50 L 296.00 496.40 L 295.00 484.30 L 293.50 472.40 L 292.10 464.50 L 288.00 448.80 Z" fill="#fcfcfd" fill-rule="nonzero" node-id="113" stroke="none" target-height="173.99997" target-width="81.600006" target-x="288" target-y="441.6"></path><path d="M 447.20 894.20 L 449.20 893.00 L 450.90 892.50 L 452.30 892.60 L 453.70 893.10 L 454.80 894.00 L 456.40 896.80 L 456.90 900.20 L 456.70 901.90 L 455.40 905.00 L 454.30 906.30 L 452.80 907.20 L 450.90 907.70 L 449.20 906.80 L 446.70 904.20 L 445.90 902.70 L 445.30 899.30 L 446.20 895.90 L 447.20 894.20 Z" fill="#fcfcfd" fill-rule="nonzero" node-id="115" stroke="none" target-height="15.200012" target-width="11.600006" target-x="445.3" target-y="892.5"></path><path d="M 637.50 387.40 L 641.80 384.40 L 646.40 381.80 L 651.10 379.80 L 656.10 378.20 L 661.10 377.10 L 666.30 376.50 L 671.40 376.30 L 676.60 376.70 L 681.70 377.60 L 686.70 379.00 L 691.50 380.80 L 696.20 383.20 L 695.90 387.30 L 693.10 403.40 L 693.00 410.10 L 694.20 415.50 L 689.00 420.00 L 683.10 423.10 L 678.80 424.50 L 674.30 425.40 L 669.70 425.80 L 665.10 425.80 L 660.40 425.30 L 655.80 424.50 L 651.30 423.20 L 643.10 419.90 L 640.20 418.20 L 637.80 416.20 L 635.70 413.70 L 634.00 411.00 L 632.80 408.00 L 632.00 404.90 L 631.70 401.70 L 631.80 398.50 L 632.40 395.40 L 633.60 392.50 L 635.30 389.80 L 637.50 387.40 Z M 662.00 391.50 L 661.20 392.80 L 661.00 393.90 L 661.40 395.00 L 663.20 396.70 L 667.10 398.10 L 669.70 398.40 L 672.80 397.80 L 675.00 396.30 L 675.60 395.10 L 675.70 393.50 L 673.60 392.20 L 669.10 390.80 L 666.70 390.60 L 664.40 390.80 L 662.00 391.50 Z" fill="#f7cbd9" fill-rule="nonzero" node-id="117" stroke="none" target-height="49.5" target-width="64.5" target-x="631.7" target-y="376.3"></path><path d="M 697.60 383.60 L 701.20 383.50 L 708.20 382.20 L 728.70 375.60 L 728.50 396.50 L 706.20 397.10 L 704.70 403.10 L 704.20 403.00 L 700.80 396.60 L 697.80 406.10 L 694.20 415.50 L 693.00 410.10 L 693.10 403.40 L 695.90 387.30 L 696.20 383.20 L 697.60 383.60 Z" fill="#e5dee1" fill-rule="nonzero" node-id="119" stroke="none" target-height="39.899994" target-width="35.700012" target-x="693" target-y="375.6"></path><path d="M 313.00 378.20 L 334.20 385.10 L 332.30 395.90 L 314.20 400.60 L 313.00 378.20 Z" fill="#c8c4ce" fill-rule="nonzero" node-id="121" stroke="none" target-height="22.399994" target-width="21.200012" target-x="313" target-y="378.2"></path><path d="M 509.50 383.80 L 512.90 382.00 L 516.40 380.80 L 520.10 380.00 L 525.60 379.30 L 545.10 379.40 L 549.80 380.30 L 552.10 381.20 L 556.30 383.70 L 554.40 386.50 L 552.20 389.10 L 541.90 398.60 L 539.90 401.20 L 538.50 404.00 L 538.00 406.10 L 537.80 408.30 L 538.00 410.90 L 538.50 413.60 L 539.50 416.10 L 540.80 418.40 L 544.40 422.30 L 549.10 425.10 L 554.30 426.80 L 559.70 427.20 L 565.00 426.30 L 567.40 425.20 L 569.70 423.70 L 573.70 419.80 L 579.90 410.40 L 581.10 411.70 L 581.80 412.90 L 582.10 414.30 L 581.80 416.30 L 581.00 418.60 L 578.20 422.80 L 575.30 426.20 L 572.90 428.40 L 570.40 430.20 L 567.80 431.60 L 565.10 432.60 L 561.30 433.40 L 557.40 433.60 L 553.40 433.20 L 549.50 432.30 L 545.70 430.90 L 542.00 429.10 L 538.60 426.90 L 535.60 424.30 L 532.90 421.40 L 529.30 424.80 L 522.60 429.70 L 516.60 432.50 L 513.50 433.40 L 510.20 433.80 L 503.50 433.70 L 500.30 433.10 L 497.10 431.90 L 494.10 430.40 L 491.40 428.50 L 489.00 426.20 L 486.90 423.60 L 485.30 420.80 L 484.20 417.80 L 483.80 415.40 L 484.10 410.50 L 484.90 407.90 L 490.10 418.10 L 493.30 422.80 L 496.20 425.10 L 498.00 426.00 L 501.10 427.40 L 504.10 428.10 L 507.30 428.40 L 510.40 428.10 L 513.40 427.40 L 516.40 426.20 L 519.20 424.70 L 521.70 422.80 L 524.00 420.60 L 526.00 418.20 L 527.60 415.50 L 528.90 412.60 L 529.60 409.60 L 529.90 406.50 L 529.60 403.20 L 515.60 390.90 L 512.40 387.50 L 509.50 383.80 Z M 516.70 385.00 L 517.40 386.40 L 519.30 388.60 L 521.10 389.70 L 523.20 390.50 L 527.70 391.00 L 535.40 391.00 L 539.30 390.60 L 542.90 389.60 L 545.20 388.60 L 547.20 387.10 L 549.00 385.10 L 543.60 384.30 L 532.80 383.80 L 524.80 384.10 L 516.70 385.00 Z" fill="#371420" fill-rule="nonzero" node-id="123" stroke="none" target-height="54.5" target-width="98.29999" target-x="483.8" target-y="379.3"></path><path d="M 374.20 385.70 L 378.90 384.50 L 383.70 383.90 L 388.60 383.70 L 393.50 383.90 L 398.30 384.60 L 403.10 385.70 L 412.30 389.00 L 419.00 392.60 L 423.00 396.20 L 426.00 400.70 L 427.90 405.80 L 428.20 408.30 L 428.20 410.90 L 427.60 413.50 L 426.60 415.90 L 425.00 418.30 L 422.60 421.10 L 420.00 423.60 L 417.10 425.70 L 414.10 427.40 L 409.80 429.20 L 405.30 430.50 L 400.50 431.30 L 395.70 431.60 L 390.90 431.40 L 386.00 430.80 L 381.30 429.80 L 372.40 426.80 L 370.00 425.60 L 366.00 422.30 L 364.50 420.30 L 362.70 417.40 L 361.50 414.20 L 360.70 410.80 L 360.40 407.20 L 360.50 403.80 L 361.10 400.30 L 362.20 397.00 L 363.70 394.00 L 365.60 391.20 L 369.40 387.90 L 374.20 385.70 Z M 382.40 399.70 L 385.50 404.60 L 396.90 406.80 L 402.70 407.50 L 408.50 407.60 L 409.50 402.10 L 406.60 401.00 L 400.70 399.70 L 396.20 399.40 L 382.40 399.70 Z" fill="#f8cdd9" fill-rule="nonzero" node-id="125" stroke="none" target-height="47.899994" target-width="67.80002" target-x="360.4" target-y="383.7"></path><path d="M 516.70 385.00 L 524.80 384.10 L 532.80 383.80 L 543.60 384.30 L 549.00 385.10 L 547.20 387.10 L 545.20 388.60 L 542.90 389.60 L 539.30 390.60 L 535.40 391.00 L 527.70 391.00 L 523.20 390.50 L 521.10 389.70 L 518.20 387.60 L 516.70 385.00 Z" fill="#7c5769" fill-rule="nonzero" node-id="127" stroke="none" target-height="7.200012" target-width="32.299988" target-x="516.7" target-y="383.8"></path><path d="M 662.00 391.40 L 664.40 390.80 L 666.70 390.60 L 671.40 391.30 L 675.70 393.50 L 675.60 395.10 L 675.00 396.30 L 674.10 397.20 L 671.40 398.20 L 667.10 398.10 L 664.70 397.40 L 663.20 396.70 L 661.40 395.00 L 661.00 393.90 L 661.20 392.80 L 662.00 391.40 Z" fill="#f7ebed" fill-rule="nonzero" node-id="129" stroke="none" target-height="7.600006" target-width="14.700012" target-x="661" target-y="390.6"></path><path d="M 382.40 399.70 L 396.20 399.40 L 400.70 399.70 L 406.60 401.00 L 409.50 402.10 L 408.50 407.60 L 402.70 407.50 L 396.90 406.80 L 385.50 404.60 L 382.40 399.70 Z" fill="#f8eaee" fill-rule="nonzero" node-id="131" stroke="none" target-height="8.200012" target-width="27.100006" target-x="382.4" target-y="399.4"></path><path d="M 349.40 402.40 L 348.70 407.20 L 335.50 408.70 L 337.10 423.80 L 349.40 423.70 L 353.40 424.10 L 356.00 424.70 L 358.40 425.70 L 360.80 427.20 L 358.90 427.60 L 353.10 425.50 L 350.20 425.00 L 345.70 424.80 L 336.60 426.00 L 323.20 428.90 L 317.10 409.40 L 338.00 407.20 L 344.60 405.30 L 349.40 402.40 Z" fill="#c0b7c2" fill-rule="nonzero" node-id="133" stroke="none" target-height="26.5" target-width="43.69998" target-x="317.1" target-y="402.4"></path><path d="M 721.80 405.40 L 727.30 404.20 L 726.50 406.00 L 724.00 416.40 L 723.20 418.60 L 722.40 420.00 L 720.40 421.60 L 719.20 422.00 L 717.70 421.90 L 715.70 421.30 L 705.70 410.60 L 721.80 405.40 Z" fill="#ded5d9" fill-rule="nonzero" node-id="135" stroke="none" target-height="17.799988" target-width="21.599976" target-x="705.7" target-y="404.2"></path><path d="M 274.90 417.00 L 287.10 414.50 L 299.40 412.50 L 305.00 433.70 L 295.20 437.80 L 285.60 442.50 L 278.80 432.80 L 271.40 423.50 L 274.90 417.00 Z" fill="#fafbfa" fill-rule="nonzero" node-id="137" stroke="none" target-height="30" target-width="33.600006" target-x="271.4" target-y="412.5"></path><path d="M 230.10 424.80 L 237.30 422.80 L 241.10 422.30 L 244.90 422.20 L 249.70 423.00 L 254.10 425.00 L 256.10 426.50 L 261.10 432.20 L 263.90 436.10 L 266.40 440.30 L 270.40 449.00 L 274.10 460.60 L 278.90 482.00 L 279.90 487.50 L 280.50 493.10 L 280.90 504.30 L 264.80 509.50 L 249.00 515.20 L 249.90 483.30 L 249.70 478.00 L 249.00 472.70 L 247.10 462.20 L 245.90 457.20 L 244.20 452.40 L 241.20 445.30 L 237.70 438.40 L 230.10 424.80 Z" fill="#4d303f" fill-rule="nonzero" node-id="139" stroke="none" target-height="93" target-width="50.799988" target-x="230.1" target-y="422.2"></path><path d="M 327.00 434.70 L 335.10 434.20 L 340.10 436.20 L 346.60 437.00 L 350.50 436.90 L 358.30 435.80 L 355.10 444.70 L 351.50 453.40 L 347.30 462.00 L 342.60 457.00 L 338.20 451.80 L 334.10 446.30 L 330.40 440.60 L 327.00 434.70 Z" fill="#e7e4ea" fill-rule="nonzero" node-id="141" stroke="none" target-height="27.799988" target-width="31.299988" target-x="327" target-y="434.2"></path><path d="M 384.00 504.00 L 387.50 504.30 L 390.90 505.00 L 404.40 509.50 L 401.30 515.60 L 391.30 531.20 L 388.20 536.50 L 385.70 542.00 L 384.40 545.80 L 383.60 549.80 L 383.10 554.10 L 371.50 523.70 L 384.00 504.00 Z" fill="#d8cdd8" fill-rule="nonzero" node-id="143" stroke="none" target-height="50.099976" target-width="32.899994" target-x="371.5" target-y="504"></path><path d="M 697.60 527.20 L 704.60 523.30 L 706.10 537.50 L 706.50 566.00 L 693.40 565.40 L 697.60 527.20 Z" fill="#dcdbe0" fill-rule="nonzero" node-id="145" stroke="none" target-height="42.700012" target-width="13.099976" target-x="693.4" target-y="523.3"></path><path d="M 338.70 588.50 L 354.00 556.50 L 359.60 546.10 L 367.80 532.70 L 372.40 526.30 L 383.10 554.10 L 395.60 564.30 L 398.50 567.10 L 401.00 570.10 L 403.80 574.60 L 405.80 580.20 L 406.40 583.10 L 406.40 586.00 L 405.30 591.80 L 404.10 594.60 L 400.80 599.70 L 396.40 604.00 L 394.00 605.70 L 388.40 608.60 L 385.30 609.60 L 379.20 610.60 L 374.90 610.50 L 370.70 610.00 L 366.50 609.10 L 360.40 607.10 L 354.60 604.60 L 338.70 588.50 Z" fill="#452635" fill-rule="nonzero" node-id="147" stroke="none" target-height="84.29999" target-width="67.69998" target-x="338.7" target-y="526.3"></path><path d="M 683.00 586.20 L 682.80 583.40 L 683.00 580.70 L 684.80 575.70 L 687.70 571.20 L 693.40 565.40 L 708.20 566.10 L 704.40 569.10 L 705.50 574.80 L 706.10 580.50 L 706.10 586.30 L 705.50 592.10 L 699.40 636.90 L 697.40 648.00 L 695.10 659.10 L 676.20 656.50 L 681.70 630.40 L 683.10 621.60 L 684.10 612.80 L 684.50 603.90 L 684.40 598.00 L 683.00 586.20 Z" fill="#3f2131" fill-rule="nonzero" node-id="149" stroke="none" target-height="93.69995" target-width="32" target-x="676.2" target-y="565.4"></path><path d="M 683.00 586.20 L 684.40 598.00 L 684.50 603.90 L 684.10 612.80 L 683.10 621.60 L 681.70 630.40 L 676.20 656.50 L 695.10 659.10 L 692.40 665.50 L 682.90 692.10 L 677.70 702.50 L 672.30 710.20 L 666.30 704.30 L 663.50 701.10 L 661.10 697.70 L 658.70 692.60 L 657.10 686.60 L 656.70 683.30 L 656.90 680.10 L 657.60 675.20 L 659.00 670.40 L 662.20 661.10 L 653.50 655.40 L 649.50 652.00 L 646.00 648.20 L 643.90 645.40 L 642.20 642.40 L 639.70 635.50 L 639.00 631.80 L 638.80 628.10 L 639.00 624.40 L 640.70 617.20 L 643.70 610.40 L 648.00 604.10 L 653.20 598.80 L 656.00 596.40 L 662.20 592.70 L 667.20 590.60 L 672.40 589.00 L 683.00 586.20 Z" fill="#4c2c3b" fill-rule="nonzero" node-id="151" stroke="none" target-height="124" target-width="56.299988" target-x="638.8" target-y="586.2"></path><path d="M 338.70 588.50 L 354.60 604.60 L 349.60 613.80 L 346.70 618.30 L 343.50 622.40 L 341.10 624.80 L 335.70 629.00 L 332.70 630.50 L 329.30 631.70 L 325.70 632.40 L 326.40 627.30 L 328.60 617.40 L 330.90 610.10 L 338.70 588.50 Z" fill="#573d4d" fill-rule="nonzero" node-id="153" stroke="none" target-height="43.900024" target-width="28.899994" target-x="325.7" target-y="588.5"></path><path d="M 749.30 597.20 L 753.00 595.80 L 756.10 597.50 L 757.90 605.40 L 759.10 613.30 L 759.80 621.30 L 760.00 629.40 L 759.70 637.50 L 759.00 645.50 L 756.30 665.40 L 754.50 675.20 L 752.30 685.00 L 749.60 694.70 L 745.50 706.20 L 744.40 707.90 L 741.40 710.50 L 737.30 712.00 L 737.10 708.80 L 737.90 702.50 L 743.40 684.00 L 746.40 669.80 L 748.80 655.30 L 750.00 645.70 L 750.80 636.00 L 751.20 626.30 L 751.10 616.60 L 750.50 606.90 L 749.30 597.20 Z" fill="#34141c" fill-rule="nonzero" node-id="155" stroke="none" target-height="116.20001" target-width="22.900024" target-x="737.1" target-y="595.8"></path><path d="M 203.60 648.40 L 202.00 639.00 L 202.40 636.10 L 203.00 635.10 L 203.90 634.30 L 205.40 633.80 L 207.70 633.60 L 211.70 650.70 L 214.30 659.10 L 220.50 675.80 L 224.10 683.80 L 228.20 691.70 L 232.60 699.30 L 237.40 706.70 L 242.60 713.80 L 248.10 720.60 L 254.10 727.00 L 260.50 733.00 L 267.20 738.60 L 274.40 743.70 L 283.60 749.30 L 289.30 752.30 L 290.80 753.60 L 291.70 755.10 L 291.90 756.20 L 291.30 759.20 L 289.00 759.60 L 286.80 759.30 L 284.70 758.60 L 278.50 755.60 L 271.20 751.30 L 264.20 746.50 L 257.60 741.40 L 251.30 735.80 L 245.30 729.90 L 239.70 723.70 L 234.40 717.10 L 229.40 710.30 L 224.80 703.20 L 220.60 695.90 L 216.80 688.40 L 213.30 680.60 L 210.30 672.70 L 207.60 664.70 L 205.40 656.60 L 203.60 648.40 Z" fill="#351019" fill-rule="nonzero" node-id="157" stroke="none" target-height="126" target-width="89.899994" target-x="202" target-y="633.6"></path><path d="M 269.40 673.30 L 282.10 659.00 L 288.30 667.70 L 308.80 697.60 L 310.50 701.20 L 312.80 709.00 L 306.90 706.50 L 301.30 703.60 L 295.90 700.20 L 290.70 696.50 L 285.90 692.50 L 281.30 688.10 L 277.00 683.50 L 273.00 678.50 L 269.40 673.30 Z" fill="#edeef2" fill-rule="nonzero" node-id="159" stroke="none" target-height="50" target-width="43.399994" target-x="269.4" target-y="659"></path><path d="M 559.50 768.00 L 571.50 771.40 L 575.20 772.90 L 577.50 774.30 L 579.60 776.10 L 584.80 782.80 L 587.80 787.50 L 590.40 792.40 L 594.00 800.10 L 597.10 807.90 L 602.50 823.90 L 596.60 818.70 L 585.40 807.50 L 580.10 801.50 L 575.20 795.30 L 570.60 788.90 L 566.40 782.20 L 562.70 775.30 L 559.50 768.00 Z" fill="#e7e6ed" fill-rule="nonzero" node-id="161" stroke="none" target-height="55.900024" target-width="43" target-x="559.5" target-y="768"></path><path d="M 440.80 833.50 L 447.40 835.80 L 454.30 837.60 L 459.10 838.50 L 468.50 839.00 L 473.20 838.60 L 477.70 837.60 L 482.00 836.20 L 485.10 834.70 L 488.10 832.80 L 493.70 827.90 L 505.60 828.70 L 517.60 829.00 L 565.60 828.40 L 577.60 828.60 L 589.50 829.40 L 592.70 832.10 L 599.80 836.80 L 605.50 839.70 L 611.40 842.00 L 622.40 850.30 L 586.90 850.90 L 515.80 850.40 L 467.50 848.30 L 440.70 846.50 L 419.40 843.90 L 408.90 842.10 L 398.40 839.80 L 388.00 837.00 L 394.60 836.50 L 421.30 836.60 L 427.80 836.20 L 436.50 834.70 L 440.80 833.50 Z" fill="#c7bbcd" fill-rule="nonzero" node-id="163" stroke="none" target-height="23" target-width="234.40002" target-x="388" target-y="827.9"></path><path d="M 647.50 826.80 L 649.20 830.60 L 667.10 835.80 L 664.90 840.60 L 663.90 841.90 L 662.50 842.90 L 654.50 845.50 L 641.90 848.50 L 635.40 849.50 L 622.40 850.30 L 611.40 842.00 L 616.50 842.30 L 625.80 842.10 L 632.80 840.70 L 636.20 839.50 L 639.20 837.90 L 642.00 835.90 L 643.70 834.20 L 645.20 832.10 L 646.50 829.60 L 647.50 826.80 Z" fill="#d8d6e1" fill-rule="nonzero" node-id="165" stroke="none" target-height="23.5" target-width="55.69995" target-x="611.4" target-y="826.8"></path><path d="M 614.30 888.40 L 617.40 881.00 L 618.00 884.20 L 619.80 886.80 L 626.30 891.40 L 627.70 892.80 L 620.00 894.90 L 619.80 906.70 L 628.90 908.10 L 624.50 911.10 L 621.90 911.80 L 617.90 910.30 L 616.80 909.40 L 616.00 908.40 L 615.30 906.40 L 614.80 899.40 L 614.50 897.10 L 613.70 895.20 L 612.90 894.10 L 611.80 893.20 L 610.10 892.50 L 614.30 888.40 Z" fill="#341d1d" fill-rule="nonzero" node-id="167" stroke="none" target-height="30.799988" target-width="18.800049" target-x="610.1" target-y="881"></path><path d="M 467.50 890.70 L 473.00 889.80 L 473.30 906.40 L 481.90 903.90 L 482.50 890.20 L 489.50 890.80 L 489.40 911.70 L 487.70 911.80 L 485.50 911.10 L 484.30 910.00 L 483.50 908.30 L 483.00 904.20 L 478.30 909.50 L 475.60 911.30 L 474.10 911.60 L 472.20 911.40 L 470.50 910.10 L 468.50 907.20 L 467.70 904.70 L 467.40 902.00 L 467.50 890.70 Z" fill="#412e3a" fill-rule="nonzero" node-id="169" stroke="none" target-height="22" target-width="22.100006" target-x="467.4" target-y="889.8"></path><path d="M 495.50 891.50 L 497.70 890.70 L 502.70 890.10 L 510.20 890.60 L 512.70 893.40 L 513.40 894.90 L 514.00 897.50 L 514.20 900.30 L 513.90 908.80 L 514.20 911.50 L 512.20 911.10 L 510.90 910.40 L 510.00 909.40 L 509.20 907.50 L 508.80 905.00 L 508.90 897.10 L 508.70 894.90 L 506.70 894.60 L 504.10 895.00 L 502.50 896.50 L 501.90 897.70 L 501.30 902.00 L 501.30 911.10 L 497.40 910.30 L 496.80 900.80 L 495.50 891.50 Z" fill="#352021" fill-rule="nonzero" node-id="171" stroke="none" target-height="21.400024" target-width="18.700012" target-x="495.5" target-y="890.1"></path></svg>